<svg xmlns="http://www.w3.org/2000/svg" width="25" height="25" viewBox="77.5 -1.492 25 25" enable-background="new 77.5 -1.492 25 25"><path fill="#336DA1" d="M97.75-.492h-16.5c-2.07 0-3.75 1.68-3.75 3.75v16.5c0 2.07 1.68 3.75 3.75 3.75h16.5c2.07 0 3.75-1.68 3.75-3.75v-16.5c0-2.07-1.68-3.75-3.75-3.75z"/><path fill="#fff" d="M90.755 17.492c5.764-.143 5.186-6.057 2.018-6.61 2.509-1.379 1.771-4.814-.856-5.264-.468-.079-1.177-.118-2.13-.118h-4.287v12.01h3.573c.666 0 1.227-.006 1.682-.018zm-2.255-9.804l1.451-.001c1.737 0 1.874 2.529-.04 2.53h-1.411v-2.529zm0 4.587l1.857-.001c2.091 0 2.539 3.025-.702 3.025h-1.155v-3.024z"/></svg>